<svg width="14" height="23" viewBox="0 0 14 23" fill="none" xmlns="http://www.w3.org/2000/svg">
<path d="M9.36084 7.19189C9.00212 7.19189 8.66504 7.24756 8.34961 7.35889C8.03418 7.46403 7.74967 7.57227 7.49609 7.68359C7.24251 7.79492 7.01986 7.85059 6.82812 7.85059C6.63021 7.85059 6.40755 7.79801 6.16016 7.69287C5.91895 7.58773 5.65918 7.48568 5.38086 7.38672C5.10254 7.28158 4.80566 7.229 4.49023 7.229C3.89648 7.229 3.32129 7.3929 2.76465 7.7207C2.21419 8.04232 1.7627 8.52165 1.41016 9.15869C1.05762 9.78955 0.881348 10.5719 0.881348 11.5059C0.881348 12.3779 1.02669 13.2438 1.31738 14.1035C1.61426 14.957 1.96989 15.6807 2.38428 16.2744C2.743 16.7754 3.09245 17.2052 3.43262 17.564C3.77279 17.9227 4.16862 18.1021 4.62012 18.1021C4.91699 18.1021 5.17367 18.0526 5.39014 17.9536C5.61279 17.8547 5.84473 17.7557 6.08594 17.6567C6.33333 17.5578 6.63949 17.5083 7.00439 17.5083C7.38167 17.5083 7.68164 17.5578 7.9043 17.6567C8.12695 17.7495 8.34342 17.8454 8.55371 17.9443C8.764 18.0371 9.03304 18.0835 9.36084 18.0835C9.84945 18.0835 10.2669 17.8979 10.6133 17.5269C10.9658 17.1558 11.2936 16.7507 11.5967 16.3115C11.943 15.8044 12.1904 15.3436 12.3389 14.9292C12.4935 14.5148 12.5739 14.2952 12.5801 14.2705C12.5677 14.2643 12.4626 14.2087 12.2646 14.1035C12.0729 13.9984 11.8503 13.8345 11.5967 13.6118C11.3493 13.383 11.1297 13.083 10.938 12.7119C10.7524 12.3408 10.6597 11.8893 10.6597 11.3574C10.6597 10.8936 10.7339 10.4946 10.8823 10.1606C11.0308 9.82048 11.2039 9.54215 11.4019 9.32568C11.5998 9.10303 11.7791 8.93604 11.9399 8.82471C12.1007 8.70719 12.1904 8.63916 12.209 8.62061C11.8874 8.15674 11.5286 7.82585 11.1328 7.62793C10.7432 7.42383 10.3844 7.30013 10.0566 7.25684C9.72884 7.21354 9.49691 7.19189 9.36084 7.19189ZM8.85059 6.01367C9.07324 5.74154 9.2557 5.43229 9.39795 5.08594C9.5402 4.7334 9.61133 4.37158 9.61133 4.00049C9.61133 3.88916 9.60205 3.79329 9.5835 3.71289C9.22477 3.72526 8.84749 3.8335 8.45166 4.0376C8.05583 4.2417 7.72803 4.49837 7.46826 4.80762C7.26416 5.03646 7.08171 5.32715 6.9209 5.67969C6.76009 6.02604 6.67969 6.38477 6.67969 6.75586C6.67969 6.81152 6.68278 6.8641 6.68896 6.91357C6.69515 6.96305 6.70133 6.99707 6.70752 7.01562C6.76937 7.02799 6.83431 7.03418 6.90234 7.03418C7.23014 7.03418 7.5765 6.93831 7.94141 6.74658C8.30632 6.54867 8.60938 6.30436 8.85059 6.01367Z" fill="black"/>
</svg>
