<svg width="40" height="40" viewBox="0 0 40 40" fill="none" xmlns="http://www.w3.org/2000/svg">
<g clip-path="url(#clip0_326_63)">
<path d="M37.6258 16.512C37.607 14.1852 35.9034 12.5817 33.5755 12.5765C32.4168 12.5744 31.2581 12.5734 30.0993 12.5786C29.9229 12.5797 29.8154 12.5692 29.8217 12.3375C29.8384 11.6997 29.8342 11.0618 29.8227 10.424C29.8196 10.2413 29.9146 10.1463 30.0346 10.0378C31.4303 8.77153 31.7863 6.83719 30.9219 5.24733C30.0357 3.61781 28.1963 2.85368 26.3601 3.37145C26.1409 3.43304 26.0521 3.38607 25.9237 3.21591C24.8965 1.85676 23.2232 1.31602 21.6177 1.83066C21.3797 1.90687 21.245 1.8578 21.0696 1.70748C18.0308 -0.905388 13.4962 -0.472171 11.0169 2.68248C10.7539 3.01757 10.519 3.21174 10.0691 3.17207C9.71309 3.14075 9.34355 3.218 8.98549 3.27646C5.8893 3.78275 3.36202 6.50314 3.23571 9.6317C3.10105 12.9617 3.17517 16.298 3.20857 19.6301C3.22214 20.9976 4.34433 21.934 5.7254 21.8943C5.94567 21.8881 6.22439 21.6584 6.36427 21.8745C6.47179 22.0405 6.39141 22.3296 6.39141 22.5635C6.39245 27.0303 6.39141 31.4961 6.3935 35.9629C6.39454 37.5079 7.05428 38.6854 8.37585 39.4913C8.81325 39.7585 9.31119 39.8535 9.79033 40.0007C15.3366 40.0007 20.8828 40.0007 26.429 40.0007C26.4739 39.9798 26.5177 39.9475 26.5657 39.9381C28.3978 39.6103 29.7006 38.1687 29.8039 36.3116C29.8457 35.5589 29.8321 34.8021 29.8217 34.0463C29.8185 33.8104 29.8738 33.7394 30.1192 33.7426C31.2779 33.7572 32.4366 33.752 33.5953 33.7478C35.8982 33.7415 37.6039 32.1412 37.6248 29.8311C37.6655 25.3935 37.6624 20.9527 37.6258 16.512ZM27.784 35.3209C27.1869 35.2896 26.5866 35.3094 25.9874 35.3136C25.455 35.3168 25.1032 35.6299 25.1012 36.0903C25.0991 36.5496 25.4509 36.8638 25.9864 36.868C26.6837 36.8732 27.3821 36.869 28.0898 36.869C27.8163 37.7918 26.9228 38.4328 25.9133 38.4359C23.7389 38.4422 21.5655 38.438 19.391 38.438C16.3836 38.438 13.3761 38.4401 10.3697 38.437C9.38217 38.4359 8.65666 37.9881 8.19422 37.1164C8.17021 37.0705 8.15142 37.0214 8.13785 36.9724C8.13158 36.9494 8.14098 36.9223 8.14515 36.8753C8.28504 36.8753 8.42701 36.8753 8.56793 36.8753C12.161 36.8753 15.7541 36.8753 19.3472 36.8753C19.4777 36.8753 19.6092 36.8836 19.7376 36.8659C20.1322 36.8106 20.4214 36.4692 20.4151 36.083C20.4088 35.6957 20.1113 35.3669 19.7157 35.3199C19.5998 35.3063 19.4819 35.3136 19.3649 35.3136C15.6936 35.3136 12.0222 35.3084 8.35185 35.322C8.02928 35.323 7.94995 35.2499 7.94995 34.9232C7.96038 28.1003 7.96038 21.2774 7.95203 14.4545C7.95203 14.1539 8.00214 14.0161 8.33827 13.9399C9.89159 13.5922 11.0608 12.6997 11.8646 11.327C12.089 10.9439 12.1527 10.9209 12.4919 11.2268C13.0922 11.7654 13.7592 12.1736 14.5495 12.3625C16.1863 12.755 17.6436 12.4053 18.8952 11.2779C19.1207 11.0744 19.3368 10.9919 19.6259 11.018C20.0403 11.0556 20.4516 11.0994 20.8504 11.2351C21.5185 11.4616 21.8672 11.922 21.9079 12.6225C21.9747 13.7801 21.9496 14.9399 21.9319 16.0976C21.9152 17.2187 22.3077 18.0768 23.3443 18.5716C23.5708 18.6791 23.4977 18.8503 23.4977 19.0017C23.5019 22.4779 23.5009 25.9551 23.5019 29.4313C23.5019 30.0691 23.4904 30.708 23.5092 31.3447C23.5228 31.8114 23.8401 32.1151 24.2671 32.1224C24.7128 32.1297 25.027 31.8228 25.0615 31.3385C25.0698 31.2216 25.0657 31.1046 25.0657 30.9867C25.0657 29.5931 25.0657 28.2005 25.0657 26.8069C25.0657 24.2024 25.0698 21.5989 25.0594 18.9944C25.0584 18.7407 25.1304 18.6176 25.3642 18.4944C26.2233 18.0382 26.6263 17.2939 26.6273 16.3252C26.6273 14.6842 26.6419 13.0431 26.619 11.4032C26.6138 11.0013 26.6921 10.8781 27.1054 10.9825C27.3904 11.0545 27.7015 11.0284 27.9969 10.9574C28.1911 10.9115 28.3007 10.9522 28.2694 11.1798C28.261 11.2435 28.2683 11.3103 28.2683 11.375C28.2683 19.2011 28.2642 27.0261 28.2798 34.8522C28.2767 35.2635 28.1556 35.3408 27.784 35.3209ZM26.6941 9.32897C26.5083 9.2726 26.3319 9.18909 26.1492 9.12019C25.6221 8.92185 25.1325 9.21623 25.0709 9.77367C25.0552 9.91564 25.0615 10.0597 25.0615 10.2027C25.0604 12.2206 25.0625 14.2395 25.0594 16.2573C25.0584 16.7636 24.8611 17.0757 24.4978 17.1759C23.9675 17.3221 23.5113 16.9536 23.504 16.345C23.4915 15.395 23.5071 14.4441 23.4967 13.4941C23.4915 13.0525 23.4998 12.6026 23.4226 12.1705C23.1543 10.6641 22.1083 9.74966 20.4506 9.5367C20.0905 9.49077 19.7251 9.46989 19.3618 9.45423C18.8273 9.43231 18.3764 9.62961 17.9839 9.9908C16.5798 11.28 14.9555 11.2946 13.5066 10.0336C13.207 9.77262 12.874 9.5889 12.4815 9.5033C11.6881 9.33001 11.0253 9.6056 10.6369 10.3196C9.89368 11.6861 8.77671 12.4471 7.20356 12.5181C6.63986 12.5431 6.3935 12.8584 6.39245 13.4941C6.38932 15.395 6.39245 17.296 6.39036 19.1969C6.39036 19.3525 6.38828 19.5111 6.35905 19.6625C6.27971 20.078 5.93731 20.3421 5.52289 20.3222C5.1095 20.3034 4.79216 20.0091 4.76293 19.58C4.73997 19.2303 4.75249 18.8775 4.75249 18.5257C4.75145 17.1979 4.75249 15.87 4.75249 14.5411C4.75249 13.135 4.74623 11.7289 4.75354 10.3228C4.77128 6.92696 7.39564 4.49991 10.7789 4.75879C11.2643 4.79637 11.5796 4.64083 11.8395 4.2191C13.7571 1.10411 17.8711 0.650017 20.4402 3.25663C20.913 3.73682 21.1312 3.7744 21.7074 3.48002C22.9664 2.83489 24.3725 3.34222 24.9571 4.65231C25.2494 5.30684 25.6492 5.44776 26.2588 5.10954C27.2933 4.5354 28.4093 4.68467 29.1838 5.50205C29.8958 6.25365 30.0273 7.40716 29.5001 8.27881C28.9166 9.24337 27.7965 9.6651 26.6941 9.32897ZM36.0746 29.5993C36.0725 31.2414 35.1226 32.1872 33.4805 32.1882C32.3615 32.1882 31.2414 32.1809 30.1223 32.1945C29.8822 32.1976 29.8049 32.137 29.8217 31.8938C29.8436 31.5702 29.8446 31.2424 29.8217 30.9178C29.8049 30.6725 29.8874 30.6171 30.1244 30.6192C31.2695 30.6318 32.4157 30.6265 33.5609 30.6244C34.2279 30.6234 34.5119 30.3478 34.5129 29.6755C34.5161 25.3402 34.5161 21.0039 34.5129 16.6686C34.5129 15.9734 34.2332 15.703 33.54 15.703C32.4074 15.702 31.2748 15.6946 30.1421 15.7082C29.8885 15.7113 29.8049 15.6466 29.8217 15.3888C29.8467 14.9869 29.6828 14.4535 29.8832 14.2154C30.0899 13.9691 30.6422 14.1476 31.042 14.1434C31.9011 14.134 32.7602 14.1382 33.6193 14.1413C35.0735 14.1465 36.0631 15.1236 36.0725 16.5934C36.085 18.5988 36.0756 20.6041 36.0756 22.6084C36.0756 22.8036 36.0756 22.9988 36.0756 23.194C36.0756 25.3288 36.0777 27.4635 36.0746 29.5993ZM32.9513 23.1648C32.9513 25.0125 32.9439 26.8612 32.9586 28.7089C32.9606 29.0022 32.8897 29.0774 32.5974 29.069C31.7654 29.0471 30.9313 29.0534 30.0993 29.067C29.8749 29.0701 29.8217 29.0022 29.8227 28.7841C29.829 25.0354 29.83 21.2868 29.8227 17.5392C29.8227 17.3158 29.8822 17.2563 30.1025 17.2594C30.948 17.272 31.7946 17.2751 32.6402 17.2584C32.9001 17.2532 32.9586 17.3315 32.9575 17.582C32.946 19.4422 32.9513 21.3035 32.9513 23.1648Z" fill="#939396"/>
<path d="M12.564 16.7469C12.564 16.0151 12.2832 15.6299 11.7633 15.6445C11.256 15.6592 11.0002 16.0266 11.0002 16.7448C11.0002 21.4935 11.0002 26.2411 11.0013 30.9898C11.0013 31.1579 10.9992 31.3301 11.0274 31.4951C11.0932 31.8813 11.4095 32.1287 11.7999 32.1214C12.2769 32.112 12.5609 31.7748 12.5609 31.1871C12.564 28.7548 12.5619 26.3215 12.563 23.8892C12.564 21.5081 12.565 19.127 12.564 16.7469Z" fill="#939396"/>
<path d="M18.0319 15.6435C17.5339 15.6435 17.2531 16.0183 17.25 16.6874C17.25 16.7396 17.25 16.7918 17.25 16.844C17.25 19.199 17.25 21.553 17.25 23.908C17.25 26.2756 17.25 28.6431 17.251 31.0107C17.251 31.1662 17.25 31.3239 17.274 31.4773C17.3387 31.8823 17.6634 32.1381 18.0705 32.1203C18.5549 32.1005 18.8127 31.7623 18.8127 31.1276C18.8138 26.3142 18.8138 21.5008 18.8127 16.6874C18.8127 16.0172 18.5298 15.6435 18.0319 15.6435Z" fill="#939396"/>
<path d="M22.7399 35.2552C22.3265 35.2656 21.9779 35.6216 21.9768 36.036C21.9758 36.4723 22.3307 36.8168 22.7733 36.8095C23.1992 36.8022 23.5353 36.4629 23.5364 36.0412C23.5395 35.6122 23.1658 35.2437 22.7399 35.2552Z" fill="#939396"/>
</g>
<defs>
<clipPath id="clip0_326_63">
<rect width="40" height="40" fill="white"/>
</clipPath>
</defs>
</svg>
