<svg width="19" height="19" viewBox="0 0 19 19" fill="none" xmlns="http://www.w3.org/2000/svg">
<path d="M12.1602 9.1582H16.6035C17.8438 9.1582 18.4688 8.5332 18.4688 7.24414V2.87891C18.4688 1.58984 17.8438 0.974609 16.6035 0.974609H12.1602C10.9102 0.974609 10.2852 1.58984 10.2852 2.87891V7.24414C10.2852 8.5332 10.9102 9.1582 12.1602 9.1582ZM2.35547 9.1582H6.80859C8.04883 9.1582 8.67383 8.5332 8.67383 7.24414V2.87891C8.67383 1.58984 8.04883 0.974609 6.80859 0.974609H2.35547C1.11523 0.974609 0.490234 1.58984 0.490234 2.87891V7.24414C0.490234 8.5332 1.11523 9.1582 2.35547 9.1582ZM2.375 7.78125C2.0332 7.78125 1.86719 7.60547 1.86719 7.24414V2.87891C1.86719 2.52734 2.0332 2.35156 2.375 2.35156H6.7793C7.12109 2.35156 7.29688 2.52734 7.29688 2.87891V7.24414C7.29688 7.60547 7.12109 7.78125 6.7793 7.78125H2.375ZM12.1797 7.78125C11.8281 7.78125 11.6621 7.60547 11.6621 7.24414V2.87891C11.6621 2.52734 11.8281 2.35156 12.1797 2.35156H16.584C16.9258 2.35156 17.0918 2.52734 17.0918 2.87891V7.24414C17.0918 7.60547 16.9258 7.78125 16.584 7.78125H12.1797ZM3.74219 6.0918H5.41211C5.54883 6.0918 5.60742 6.0332 5.60742 5.86719V4.24609C5.60742 4.08984 5.54883 4.03125 5.41211 4.03125H3.74219C3.5957 4.03125 3.54688 4.08984 3.54688 4.24609V5.86719C3.54688 6.0332 3.5957 6.0918 3.74219 6.0918ZM13.5957 6.0918H15.2656C15.4121 6.0918 15.4707 6.0332 15.4707 5.86719V4.24609C15.4707 4.08984 15.4121 4.03125 15.2656 4.03125H13.5957C13.459 4.03125 13.4102 4.08984 13.4102 4.24609V5.86719C13.4102 6.0332 13.459 6.0918 13.5957 6.0918ZM2.35547 18.9531H6.80859C8.04883 18.9531 8.67383 18.3379 8.67383 17.0488V12.6738C8.67383 11.3945 8.04883 10.7695 6.80859 10.7695H2.35547C1.11523 10.7695 0.490234 11.3945 0.490234 12.6738V17.0488C0.490234 18.3379 1.11523 18.9531 2.35547 18.9531ZM10.9492 13.2988H12.6191C12.7559 13.2988 12.8145 13.2402 12.8145 13.0742V11.4531C12.8145 11.2969 12.7559 11.2383 12.6191 11.2383H10.9492C10.8027 11.2383 10.7539 11.2969 10.7539 11.4531V13.0742C10.7539 13.2402 10.8027 13.2988 10.9492 13.2988ZM16.1348 13.2988H17.8047C17.9414 13.2988 18 13.2402 18 13.0742V11.4531C18 11.2969 17.9414 11.2383 17.8047 11.2383H16.1348C15.9883 11.2383 15.9395 11.2969 15.9395 11.4531V13.0742C15.9395 13.2402 15.9883 13.2988 16.1348 13.2988ZM2.375 17.5762C2.0332 17.5762 1.86719 17.4004 1.86719 17.0488V12.6836C1.86719 12.3223 2.0332 12.1465 2.375 12.1465H6.7793C7.12109 12.1465 7.29688 12.3223 7.29688 12.6836V17.0488C7.29688 17.4004 7.12109 17.5762 6.7793 17.5762H2.375ZM3.74219 15.8965H5.41211C5.54883 15.8965 5.60742 15.8379 5.60742 15.6621V14.0508C5.60742 13.8945 5.54883 13.8359 5.41211 13.8359H3.74219C3.5957 13.8359 3.54688 13.8945 3.54688 14.0508V15.6621C3.54688 15.8379 3.5957 15.8965 3.74219 15.8965ZM13.5664 15.8965H15.2363C15.373 15.8965 15.4316 15.8379 15.4316 15.6621V14.0508C15.4316 13.8945 15.373 13.8359 15.2363 13.8359H13.5664C13.4199 13.8359 13.3711 13.8945 13.3711 14.0508V15.6621C13.3711 15.8379 13.4199 15.8965 13.5664 15.8965ZM10.9492 18.4844H12.6191C12.7559 18.4844 12.8145 18.4258 12.8145 18.2598V16.6387C12.8145 16.4824 12.7559 16.4238 12.6191 16.4238H10.9492C10.8027 16.4238 10.7539 16.4824 10.7539 16.6387V18.2598C10.7539 18.4258 10.8027 18.4844 10.9492 18.4844ZM16.1348 18.4844H17.8047C17.9414 18.4844 18 18.4258 18 18.2598V16.6387C18 16.4824 17.9414 16.4238 17.8047 16.4238H16.1348C15.9883 16.4238 15.9395 16.4824 15.9395 16.6387V18.2598C15.9395 18.4258 15.9883 18.4844 16.1348 18.4844Z" fill="black"/>
</svg>
