<svg width="139" height="22" viewBox="0 0 139 22" fill="none" xmlns="http://www.w3.org/2000/svg">
<path d="M12.634 17.797C12.6956 17.7394 12.7609 17.686 12.8295 17.6371C12.9015 17.5818 12.9828 17.5397 13.0694 17.5127C13.1502 17.4862 13.2374 17.4862 13.3182 17.5127C13.4206 17.5568 13.5095 17.6273 13.5759 17.717C13.7447 17.9569 13.8868 18.1524 14.0023 18.2945L14.2689 18.6499L14.4288 18.8632C14.4696 18.9284 14.5052 18.9967 14.5354 19.0675C14.5618 19.1423 14.5618 19.2238 14.5354 19.2985C14.5098 19.3983 14.4645 19.4919 14.4021 19.5739C14.2977 19.6973 14.1816 19.8103 14.0556 19.9116C13.6832 20.2043 13.2914 20.4714 12.8828 20.7112C12.4745 20.9539 12.0465 21.1619 11.6034 21.3331C11.149 21.512 10.679 21.6488 10.1996 21.7418C9.68419 21.8396 9.1605 21.8872 8.63589 21.884C7.87265 21.8886 7.11272 21.7838 6.37917 21.573C4.93938 21.1727 3.62877 20.4041 2.57648 19.3429C2.04509 18.8126 1.58512 18.2153 1.20821 17.566C0.8208 16.9251 0.521927 16.2347 0.319734 15.5136C-0.106578 14.0302 -0.106578 12.4568 0.319734 10.9735C0.523546 10.253 0.822328 9.56278 1.20821 8.92109C1.58741 8.27335 2.04717 7.67628 2.57648 7.14413C3.63515 6.09127 4.94347 5.324 6.37917 4.91404C7.11352 4.70702 7.87291 4.60238 8.63589 4.60308C9.1251 4.60195 9.61323 4.64956 10.093 4.74522C10.5711 4.83172 11.0408 4.95955 11.4968 5.12728C11.9349 5.28232 12.3598 5.47248 12.7673 5.6959C13.1411 5.90076 13.4976 6.13548 13.8335 6.3978L14.0467 6.5755C14.1245 6.64282 14.1959 6.71718 14.26 6.79762C14.3121 6.88211 14.3483 6.97547 14.3666 7.07305C14.3846 7.18367 14.3625 7.29708 14.3044 7.3929L13.3448 8.65454C13.1227 8.94774 12.8562 8.94774 12.563 8.65454C12.3162 8.40523 12.042 8.18466 11.7456 7.99706C11.4343 7.79902 11.1075 7.62667 10.7683 7.48174C10.4144 7.34018 10.0487 7.23018 9.67542 7.15301C9.31028 7.07574 8.93804 7.03702 8.56482 7.0375C7.79761 7.03616 7.03943 7.20297 6.34362 7.52617C5.63234 7.85585 4.98784 8.31364 4.44229 8.87666C3.88479 9.45158 3.43623 10.1229 3.11844 10.858C2.79318 11.6065 2.62534 12.414 2.62534 13.2302C2.62534 14.0464 2.79318 14.8539 3.11844 15.6024C3.73931 17.0665 4.89167 18.2411 6.34362 18.8898C7.04841 19.2144 7.81556 19.3811 8.59147 19.3785C9.02751 19.3832 9.46268 19.3385 9.88865 19.2452C10.2562 19.1629 10.6137 19.0408 10.9548 18.8809C11.2672 18.7353 11.5648 18.5598 11.8433 18.3567C12.1187 18.2146 12.3764 18.0102 12.634 17.797Z" fill="#585858" fill-opacity="0.3"/>
<path d="M31.3188 19.3696C30.568 20.1255 29.678 20.729 28.6978 21.1466C27.6793 21.5959 26.5768 21.823 25.4637 21.8129C23.9464 21.8106 22.4579 21.3993 21.1546 20.6224C19.8769 19.8687 18.8127 18.8014 18.0627 17.5216C17.2826 16.2131 16.8707 14.7181 16.8707 13.1947C16.8707 11.6713 17.2826 10.1763 18.0627 8.86778C18.4356 8.22052 18.8894 7.6234 19.4132 7.09082C19.9442 6.56775 20.5416 6.11668 21.1901 5.74921C21.8285 5.36291 22.5158 5.06408 23.2337 4.86073C25.0531 4.34927 26.9924 4.47146 28.7333 5.20724C29.7101 5.63113 30.599 6.23379 31.3543 6.9842V5.51821C31.3423 5.4396 31.3489 5.35924 31.3736 5.28366C31.3984 5.20807 31.4406 5.13939 31.4968 5.08315C31.553 5.02691 31.6217 4.9847 31.6973 4.95996C31.7729 4.93521 31.8532 4.92861 31.9318 4.94069H33.2824C33.691 4.94069 33.8954 5.12728 33.8954 5.51821V21.0044C33.8974 21.0832 33.8834 21.1616 33.8544 21.2348C33.8254 21.3081 33.7819 21.3748 33.7266 21.4309C33.6134 21.5296 33.468 21.5833 33.3179 21.5819H31.9585C31.8768 21.5863 31.795 21.5736 31.7185 21.5445C31.642 21.5155 31.5724 21.4707 31.5143 21.4131C31.4092 21.3032 31.3518 21.1564 31.3543 21.0044L31.3188 19.3696ZM31.4165 13.248C31.4184 12.4396 31.2583 11.639 30.9456 10.8935C30.6401 10.1683 30.2033 9.50561 29.6573 8.93885C29.1136 8.37601 28.4686 7.92085 27.756 7.59725C27.027 7.26993 26.2361 7.10327 25.4371 7.10858C24.6408 7.10231 23.8526 7.26904 23.127 7.59725C22.4208 7.92276 21.7819 8.37783 21.2434 8.93885C20.7028 9.50632 20.272 10.1691 19.9729 10.8935C19.3581 12.3999 19.3581 14.0872 19.9729 15.5936C20.274 16.325 20.7044 16.9961 21.2434 17.5749C21.7784 18.1467 22.4178 18.6112 23.127 18.9431C23.85 19.2811 24.639 19.454 25.4371 19.4496C26.2379 19.4533 27.0297 19.2804 27.756 18.9431C28.472 18.6137 29.1175 18.1491 29.6573 17.5749C30.202 16.9969 30.6384 16.3258 30.9456 15.5936C31.2556 14.8503 31.4156 14.0532 31.4165 13.248Z" fill="#585858" fill-opacity="0.3"/>
<path d="M36.3742 18.3389C36.3347 18.2353 36.305 18.1282 36.2854 18.0191C36.2673 17.9491 36.2673 17.8758 36.2854 17.8059C36.3127 17.7502 36.3487 17.6992 36.392 17.6548C36.453 17.6003 36.5219 17.5554 36.5963 17.5215L37.8402 16.944C37.9162 16.8968 38.004 16.8718 38.0935 16.8718C38.1829 16.8718 38.2706 16.8968 38.3466 16.944C38.4733 17.0535 38.5735 17.1902 38.6399 17.3438C38.7758 17.684 38.9886 17.9882 39.2618 18.2323C39.526 18.4843 39.8252 18.6968 40.1503 18.8631C40.4686 19.0276 40.8058 19.1529 41.1542 19.2363C41.4436 19.3181 41.7421 19.3629 42.0427 19.3696C42.4146 19.3627 42.7844 19.3121 43.1445 19.2185C43.5415 19.1305 43.9223 18.9806 44.2728 18.7743C44.6193 18.5772 44.9217 18.3111 45.1613 17.9924C45.387 17.6578 45.5076 17.2633 45.5076 16.8596C45.5076 16.4559 45.387 16.0615 45.1613 15.7268C44.9187 15.4274 44.6161 15.1822 44.2728 15.0071C43.8873 14.8085 43.4784 14.6593 43.0556 14.5629L41.714 14.2075C40.9937 14.0159 40.2919 13.7602 39.6172 13.4434C39.045 13.1718 38.5153 12.8187 38.0446 12.395C37.622 12.0124 37.2832 11.5466 37.0495 11.0267C36.8193 10.4847 36.7043 9.9008 36.7118 9.31199C36.7033 8.64982 36.843 7.99412 37.1206 7.39287C37.3843 6.82463 37.7695 6.32117 38.2489 5.91799C38.7757 5.48928 39.3785 5.16374 40.0259 4.95843C40.7525 4.72738 41.5113 4.61341 42.2737 4.62081C42.8562 4.61238 43.4377 4.67203 44.0063 4.79851C44.4649 4.9128 44.9027 5.0987 45.3035 5.34937C45.6871 5.59554 46.0341 5.89465 46.3341 6.23785C46.648 6.59324 46.9767 7.00194 47.3203 7.46395C47.4077 7.59824 47.4653 7.74974 47.4891 7.90819C47.4891 8.04146 47.418 8.16584 47.2492 8.29023L46.2275 9.05432C46.032 9.16983 45.8721 9.20537 45.7743 9.15206C45.6393 9.07621 45.5214 8.97338 45.4278 8.84998C45.2324 8.61009 45.0369 8.38796 44.8414 8.16584C44.6457 7.94822 44.425 7.75439 44.184 7.58834C43.9313 7.41027 43.6526 7.2724 43.3577 7.17963C42.9972 7.07366 42.6228 7.02274 42.2471 7.02859C41.8728 7.02752 41.4999 7.07227 41.1365 7.16186C40.7935 7.24029 40.4681 7.3819 40.1769 7.57945C39.8967 7.76741 39.6628 8.01652 39.4928 8.308C39.3164 8.6256 39.2275 8.98432 39.2351 9.34752C39.2281 9.67152 39.3385 9.98712 39.5461 10.236C39.7769 10.5078 40.0463 10.7442 40.3457 10.9379C40.6824 11.1507 41.0396 11.3293 41.4119 11.471C41.7739 11.6136 42.1449 11.7324 42.5225 11.8264C43.3015 12.0025 44.0628 12.2493 44.797 12.5638C45.438 12.8271 46.0368 13.1833 46.574 13.6211C47.0494 14.0127 47.4369 14.5001 47.7112 15.0516C47.9919 15.6297 48.1319 16.2659 48.1199 16.9085C48.1283 17.5922 47.9787 18.2686 47.6828 18.885C47.3869 19.5014 46.9527 20.0412 46.4141 20.4624C45.8389 20.8998 45.1885 21.2281 44.4949 21.4308C43.7084 21.6677 42.8907 21.7845 42.0694 21.7774C41.4972 21.7748 40.9274 21.7032 40.3724 21.5641C39.7987 21.4241 39.2461 21.209 38.7287 20.9244C38.2101 20.6339 37.7371 20.2687 37.3249 19.8405C36.9101 19.4091 36.5867 18.8984 36.3742 18.3389Z" fill="#585858" fill-opacity="0.3"/>
<path d="M53.7351 6.62884C53.9735 6.33302 54.2381 6.05943 54.5259 5.81144C54.8085 5.56685 55.1222 5.36071 55.4588 5.19838C55.8325 5.02525 56.2265 4.89987 56.6316 4.82522C57.1323 4.73042 57.6413 4.68577 58.1509 4.69195C59.0686 4.68224 59.9776 4.87012 60.8163 5.24281C61.6071 5.60418 62.3171 6.12085 62.9043 6.7621C63.4942 7.42467 63.9526 8.19359 64.2547 9.02773C64.5719 9.91729 64.7312 10.8554 64.7256 11.7998V20.6846C64.7358 20.8049 64.7214 20.9261 64.6832 21.0406C64.645 21.1552 64.5839 21.2608 64.5035 21.3509C64.4255 21.4251 64.3334 21.483 64.2327 21.5212C64.132 21.5593 64.0247 21.5769 63.9171 21.573H62.9576C62.6377 21.573 62.4245 21.5109 62.3356 21.3776C62.2265 21.1765 62.1772 20.9483 62.1935 20.7201V11.8353C62.1902 11.2915 62.1002 10.7516 61.9269 10.2361C61.7539 9.69381 61.4828 9.18789 61.1273 8.74341C60.768 8.29216 60.3167 7.92266 59.8035 7.65948C59.2395 7.37374 58.6142 7.23037 57.9821 7.24189C57.4671 7.24461 56.9564 7.33473 56.4717 7.50842C55.9707 7.68522 55.5067 7.95333 55.1034 8.29917C54.6915 8.66148 54.3561 9.10253 54.1172 9.59635C53.8554 10.1516 53.7247 10.7595 53.7351 11.3733V21.0489C53.7472 21.1275 53.7406 21.2078 53.7159 21.2834C53.6911 21.359 53.6489 21.4277 53.5927 21.4839C53.5364 21.5402 53.4678 21.5824 53.3922 21.6071C53.3166 21.6319 53.2362 21.6384 53.1576 21.6264H51.8516C51.434 21.6264 51.2296 21.4398 51.2296 21.0489V0.613829C51.2273 0.536328 51.2411 0.459187 51.2702 0.387303C51.2992 0.315419 51.3429 0.250359 51.3984 0.196242C51.5083 0.0912289 51.6552 0.0337726 51.8072 0.0363227H53.1665C53.2481 0.0334772 53.3294 0.0469353 53.4056 0.075923C53.4819 0.104911 53.5517 0.148847 53.6108 0.205136C53.7158 0.315016 53.7732 0.461858 53.7707 0.613829L53.7351 6.62884Z" fill="#585858" fill-opacity="0.3"/>
<path d="M70.945 7.15302C71.6958 6.39709 72.5859 5.79367 73.566 5.37606C74.5847 4.92754 75.6871 4.70041 76.8001 4.7097C78.3204 4.71044 79.8123 5.12177 81.1181 5.90026C81.7669 6.27082 82.3643 6.72485 82.8951 7.25075C83.4205 7.78404 83.8772 8.381 84.2544 9.02771C84.6369 9.67116 84.9355 10.3609 85.1429 11.0801C85.3465 11.821 85.4481 12.5862 85.445 13.3546C85.4493 14.123 85.3477 14.8884 85.1429 15.6291C84.9355 16.3483 84.6369 17.0381 84.2544 17.6815C83.8754 18.327 83.4189 18.9237 82.8951 19.4585C82.364 19.9815 81.7666 20.4326 81.1181 20.8001C80.4767 21.1864 79.7864 21.4852 79.0657 21.6885C78.3293 21.9002 77.5663 22.0049 76.8001 21.9995C75.6877 22.0119 74.5853 21.7878 73.566 21.342C72.5873 20.9219 71.6977 20.3188 70.945 19.5651V21.1466C70.9571 21.2252 70.9505 21.3055 70.9258 21.3811C70.901 21.4567 70.8588 21.5254 70.8026 21.5816C70.7463 21.6379 70.6776 21.6801 70.602 21.7048C70.5265 21.7296 70.4461 21.7362 70.3675 21.7241H69.017C68.6083 21.7241 68.404 21.5375 68.404 21.1466V0.711542C68.4005 0.633904 68.4138 0.556429 68.4429 0.484379C68.4721 0.412329 68.5164 0.347388 68.5728 0.293956C68.6859 0.195261 68.8313 0.141518 68.9815 0.142916H70.3409C70.4226 0.138493 70.5043 0.151233 70.5808 0.180307C70.6574 0.20938 70.7269 0.254146 70.7851 0.311729C70.8368 0.364513 70.8776 0.427023 70.905 0.495645C70.9325 0.564267 70.9461 0.637641 70.945 0.711542V7.15302ZM70.8117 13.2924C70.8091 14.1038 70.9693 14.9074 71.2826 15.6558C71.5904 16.3772 72.0269 17.0365 72.5709 17.6015C73.1128 18.1603 73.7548 18.6123 74.4634 18.9342C75.1961 19.2704 75.994 19.4404 76.8001 19.4318C77.5976 19.4409 78.387 19.2708 79.1101 18.9342C79.8178 18.6151 80.4573 18.1627 80.9937 17.6015C81.5357 17.0385 81.9668 16.3784 82.2643 15.6558C82.5751 14.9097 82.7352 14.1095 82.7352 13.3013C82.7352 12.4931 82.5751 11.6929 82.2643 10.9468C81.9666 10.2137 81.5358 9.54193 80.9937 8.96551C80.4587 8.39363 79.8194 7.92922 79.1101 7.59726C78.3872 7.25933 77.5981 7.08636 76.8001 7.09083C75.9934 7.08536 75.1955 7.25829 74.4634 7.59726C73.7527 7.93122 73.1108 8.3953 72.5709 8.96551C72.0263 9.54343 71.5899 10.2145 71.2826 10.9468C70.9727 11.69 70.8127 12.4872 70.8117 13.2924Z" fill="#585858" fill-opacity="0.3"/>
<path d="M102.388 19.3696C101.624 20.1303 100.719 20.734 99.7228 21.1466C98.7044 21.5959 97.6019 21.823 96.4887 21.8129C94.9715 21.8106 93.4829 21.3993 92.1796 20.6224C90.9019 19.8687 89.8377 18.8014 89.0877 17.5216C88.3076 16.2131 87.8958 14.7181 87.8958 13.1947C87.8958 11.6713 88.3076 10.1763 89.0877 8.86778C89.4606 8.22052 89.9144 7.6234 90.4382 7.09082C90.9692 6.56775 91.5666 6.11668 92.2152 5.74921C92.8535 5.36291 93.5408 5.06408 94.2587 4.86073C96.0782 4.34927 98.0174 4.47146 99.7583 5.20724C100.751 5.62628 101.655 6.22918 102.424 6.9842V5.51821C102.412 5.4396 102.418 5.35924 102.443 5.28366C102.468 5.20807 102.51 5.13939 102.566 5.08315C102.622 5.02691 102.691 4.9847 102.767 4.95996C102.842 4.93521 102.923 4.92861 103.001 4.94069H104.352C104.761 4.94069 104.965 5.12728 104.965 5.51821V21.0044C104.967 21.0832 104.953 21.1616 104.924 21.2348C104.895 21.3081 104.851 21.3748 104.796 21.4309C104.683 21.5296 104.537 21.5833 104.387 21.5819H103.028C102.946 21.5863 102.864 21.5736 102.788 21.5445C102.711 21.5155 102.642 21.4707 102.584 21.4131C102.479 21.3032 102.421 21.1564 102.424 21.0044L102.388 19.3696ZM102.495 13.248C102.497 12.4396 102.337 11.639 102.024 10.8935C101.718 10.1683 101.282 9.50561 100.736 8.93885C100.192 8.37601 99.5469 7.92085 98.8343 7.59725C98.1054 7.26993 97.3145 7.10327 96.5154 7.10858C95.7191 7.10231 94.9309 7.26904 94.2054 7.59725C93.4992 7.92276 92.8602 8.37783 92.3218 8.93885C91.7812 9.50632 91.3504 10.1691 91.0513 10.8935C90.4365 12.3999 90.4365 14.0872 91.0513 15.5936C91.3523 16.325 91.7827 16.9961 92.3218 17.5749C92.8568 18.1467 93.4961 18.6112 94.2054 18.9431C94.9283 19.2811 95.7174 19.454 96.5154 19.4496C97.3162 19.4533 98.108 19.2804 98.8343 18.9431C99.5503 18.6137 100.196 18.1491 100.736 17.5749C101.28 16.9969 101.717 16.3258 102.024 15.5936C102.334 14.8503 102.494 14.0532 102.495 13.248Z" fill="#585858" fill-opacity="0.3"/>
<path d="M120.158 17.797L120.362 17.6371C120.43 17.5803 120.508 17.538 120.593 17.5127C120.674 17.4862 120.761 17.4862 120.842 17.5127C120.946 17.5544 121.035 17.6254 121.1 17.717L121.526 18.2945C121.633 18.4456 121.721 18.5611 121.793 18.6499L121.952 18.8632C121.996 18.9282 122.035 18.9965 122.068 19.0675C122.09 19.1429 122.09 19.2231 122.068 19.2985C122.042 19.4 121.994 19.4942 121.926 19.5739C121.826 19.7018 121.71 19.8154 121.579 19.9116C121.207 20.2043 120.815 20.4714 120.406 20.7112C120.002 20.9556 119.577 21.1638 119.136 21.3331C118.678 21.5119 118.206 21.6487 117.723 21.7418C116.454 21.9773 115.147 21.9196 113.903 21.573C113.187 21.3638 112.501 21.0653 111.859 20.6845C111.214 20.3046 110.618 19.8481 110.082 19.3252C109.554 18.7925 109.094 18.1955 108.714 17.5482C108.33 16.9054 108.032 16.2155 107.826 15.4958C107.411 14.0109 107.411 12.4407 107.826 10.9557C108.033 10.2366 108.332 9.5469 108.714 8.90331C109.096 8.25764 109.556 7.66092 110.082 7.12636C110.616 6.60329 111.213 6.14954 111.859 5.77586C112.499 5.39134 113.186 5.09262 113.903 4.88738C114.637 4.68092 115.397 4.57629 116.16 4.57642C116.649 4.57483 117.137 4.62244 117.617 4.71857C118.549 4.8959 119.448 5.2166 120.282 5.66925C120.658 5.86987 121.015 6.10483 121.348 6.37114L121.562 6.54885C121.644 6.61138 121.716 6.68631 121.775 6.77097C121.83 6.855 121.869 6.94833 121.89 7.0464C121.905 7.15805 121.88 7.27128 121.819 7.36625L120.869 8.62789C120.638 8.92109 120.38 8.92109 120.078 8.62789C119.834 8.37865 119.563 8.15806 119.269 7.97041C118.955 7.77234 118.625 7.60001 118.283 7.45509C117.932 7.31354 117.569 7.20353 117.199 7.12636C116.074 6.88721 114.903 7.01811 113.858 7.49952C113.147 7.8292 112.503 8.28699 111.957 8.85001C111.402 9.42722 110.954 10.098 110.633 10.8313C110.305 11.5792 110.136 12.3869 110.136 13.2035C110.136 14.0202 110.305 14.8279 110.633 15.5758C111.254 17.0368 112.402 18.2104 113.85 18.8632C114.554 19.1877 115.321 19.3545 116.097 19.3518C116.536 19.3561 116.974 19.3114 117.403 19.2186C117.768 19.1345 118.122 19.0124 118.461 18.8543C118.772 18.7061 119.069 18.5307 119.349 18.3301C119.642 18.2146 119.909 18.0102 120.158 17.797Z" fill="#585858" fill-opacity="0.3"/>
<path d="M125.187 0.578278C125.185 0.428146 125.239 0.282714 125.338 0.169572C125.392 0.112447 125.459 0.0677951 125.532 0.0386644C125.606 0.00953365 125.685 -0.00339353 125.764 0.000758665H127.123C127.278 -0.00222486 127.428 0.0551422 127.541 0.160692C127.602 0.211238 127.651 0.275213 127.683 0.347645C127.716 0.420076 127.731 0.499008 127.728 0.578278V12.4928L134.533 5.27833C134.633 5.18498 134.743 5.10439 134.862 5.03843C134.983 4.96664 135.122 4.93259 135.262 4.9407H137.252C137.366 4.93051 137.48 4.96209 137.572 5.02955C137.605 5.05621 137.632 5.09002 137.651 5.12847C137.669 5.16692 137.679 5.20902 137.679 5.25167C137.683 5.40892 137.633 5.56291 137.536 5.68703L131.157 12.2973L138.363 20.8356C138.444 20.9117 138.5 21.011 138.523 21.1199C138.533 21.1966 138.533 21.2742 138.523 21.3509C138.528 21.3873 138.522 21.4244 138.506 21.4576C138.491 21.4908 138.465 21.5186 138.434 21.5375C138.335 21.562 138.231 21.562 138.132 21.5375H135.875C135.754 21.5376 135.636 21.5004 135.537 21.4309C135.42 21.3517 135.328 21.2408 135.271 21.111L129.425 14.0032L127.719 15.7802V20.9778C127.719 21.3687 127.514 21.5553 127.115 21.5553H125.755C125.677 21.5674 125.596 21.5608 125.521 21.536C125.445 21.5113 125.376 21.4691 125.32 21.4128C125.264 21.3566 125.222 21.2879 125.197 21.2123C125.172 21.1367 125.166 21.0564 125.178 20.9778L125.187 0.578278Z" fill="#585858" fill-opacity="0.3"/>
</svg>
