<svg width="132" height="131" viewBox="0 0 132 131" fill="none" xmlns="http://www.w3.org/2000/svg">
<path d="M67.444 0.0446613C58.767 -0.277071 50.1133 1.14206 41.9935 4.21835C33.8736 7.29465 26.4521 11.9658 20.1665 17.9563C13.8809 23.9469 8.8585 31.1354 5.39563 39.0981C1.93276 47.0607 0.0994836 55.6362 0.0039377 64.3187C-0.0916082 73.0012 1.55251 81.615 4.83931 89.6519C8.12612 97.6888 12.9891 104.986 19.1413 111.114C25.2936 117.241 32.6106 122.074 40.6607 125.329C48.7109 128.583 57.3312 130.192 66.0133 130.061C102.582 130.165 130.462 100.867 131.249 66.6528C131.458 58.0834 129.971 49.5571 126.873 41.5645C123.775 33.5718 119.128 26.2705 113.198 20.0803C107.268 13.8901 100.173 8.93327 92.3212 5.49481C84.469 2.05635 76.0146 0.204126 67.444 0.0446613ZM92.957 81.8058C92.5437 82.2184 91.9835 82.4502 91.3994 82.4502C90.8154 82.4502 90.2552 82.2184 89.8419 81.8058L86.0699 78.0338C85.1001 79.1888 84.0316 80.2572 82.8767 81.227L86.6552 84.999C87.0674 85.4121 87.2987 85.972 87.2981 86.5556C87.2974 87.1392 87.065 87.6987 86.6519 88.1109C86.4474 88.315 86.2047 88.4769 85.9376 88.5872C85.6705 88.6975 85.3843 88.7541 85.0953 88.7538C84.5117 88.7532 83.9523 88.5207 83.54 88.1077L79.2218 83.7894C76.2796 85.4924 73.0306 86.5988 69.6605 87.0452C66.2905 87.4915 62.8655 87.2691 59.5814 86.3907L59.0546 86.2412C57.7539 85.864 57.7539 86.2412 57.7539 87.2882C57.5328 93.9607 50.8213 98.0384 45.0852 94.9493C43.8042 94.3232 42.7098 93.3722 41.911 92.1911C41.1122 91.0101 40.637 89.6402 40.5328 88.2182V60.2079C40.7219 56.0869 41.8996 52.0719 43.9666 48.5017L39.6028 44.1444C39.2178 43.7258 39.0095 43.1746 39.0214 42.6059C39.0332 42.0373 39.2644 41.4952 39.6666 41.0931C40.0688 40.6909 40.6108 40.4597 41.1795 40.4478C41.7481 40.4359 42.2994 40.6443 42.718 41.0293L46.516 44.9183C47.4832 43.7431 48.5517 42.655 49.7092 41.6666L45.8917 37.8426C45.6861 37.6388 45.5229 37.3964 45.4113 37.1294C45.2997 36.8623 45.2419 36.5758 45.2413 36.2864C45.2407 35.9969 45.2973 35.7102 45.4078 35.4427C45.5183 35.1752 45.6805 34.9321 45.8852 34.7275C46.0898 34.5228 46.3329 34.3606 46.6004 34.2501C46.8679 34.1396 47.1546 34.083 47.4441 34.0836C47.7335 34.0842 48.02 34.142 48.2871 34.2536C48.5541 34.3652 48.7965 34.5285 49.0003 34.734L53.3641 39.0978C58.2828 36.2473 64.0055 35.1018 69.6425 35.8393C75.2794 36.5767 80.5148 39.1559 84.5347 43.1758C88.5546 47.1957 91.1338 52.4311 91.8712 58.068C92.6087 63.705 91.4632 69.4277 88.6127 74.3464L92.9375 78.6712C93.1468 78.8744 93.3136 79.1174 93.428 79.3857C93.5425 79.6541 93.6024 79.9426 93.6042 80.2344C93.606 80.5262 93.5497 80.8154 93.4386 81.0852C93.3275 81.355 93.1638 81.6 92.957 81.8058Z" fill="#FDC620"/>
<path d="M74.6709 62.8187C75.4224 58.1885 72.2782 53.8257 67.648 53.0741C63.0178 52.3225 58.6549 55.4667 57.9034 60.097C57.1518 64.7272 60.296 69.09 64.9262 69.8416C69.5564 70.5932 73.9193 67.4489 74.6709 62.8187Z" fill="#FDC620"/>
</svg>
