<svg width="100" height="54" viewBox="0 0 100 54" fill="none" xmlns="http://www.w3.org/2000/svg">
<path d="M60.74 16.0581C59.3166 14.6425 57.6274 13.5223 55.7695 12.7619C53.9116 12.0014 51.9217 11.6157 49.9142 11.627C47.1744 11.6138 44.4796 12.3234 42.1017 13.6843C40.9689 14.3368 39.9266 15.1349 39.0012 16.0581C37.0837 17.9999 35.7102 20.4114 35.0181 23.051C34.326 25.6907 34.3397 28.4659 35.0578 31.0987C35.4096 32.3911 35.9286 33.632 36.6015 34.7902C38.6116 38.2482 41.9076 40.7709 45.7706 41.8082C47.1219 42.1691 48.5155 42.3473 49.9142 42.3379C52.6364 42.3523 55.3129 41.6375 57.6654 40.2677C59.9414 38.9456 61.8337 37.0533 63.1558 34.7773C64.5339 32.4047 65.2562 29.7084 65.2487 26.9647C65.2674 24.888 64.8573 22.8297 64.044 20.9188C63.2634 19.1023 62.1418 17.4523 60.74 16.0581V16.0581ZM55.9698 29.8585C55.6893 30.713 55.2438 31.5041 54.6586 32.1871C54.0837 32.8477 53.3746 33.3784 52.5787 33.7438C51.7145 34.134 50.7751 34.3291 49.827 34.3154C48.858 34.3309 47.8971 34.1358 47.0107 33.7438C46.1998 33.3801 45.4746 32.8497 44.8824 32.1871C44.2818 31.5074 43.8209 30.7162 43.5259 29.8585C42.8844 27.9981 42.8844 25.9765 43.5259 24.1161C43.8257 23.2441 44.2857 22.4357 44.8824 21.7326C45.4683 21.0485 46.1941 20.4979 47.0107 20.1178C47.8926 19.7093 48.8553 19.5051 49.827 19.5203C50.7778 19.507 51.719 19.7114 52.5787 20.1178C53.3803 20.4998 54.0899 21.0507 54.6586 21.7326C55.2417 22.4436 55.6865 23.2575 55.9698 24.1323C56.577 25.9983 56.577 28.0087 55.9698 29.8746V29.8585Z" fill="white"/>
<path d="M28.8118 19.1164C28.1564 17.9857 27.3574 16.9447 26.4348 16.0191C25.5102 15.0913 24.4678 14.2889 23.3343 13.6324C22.1795 12.9629 20.9416 12.4482 19.6525 12.1016C18.303 11.7347 16.9105 11.5501 15.5121 11.5525C13.0386 11.5409 10.5997 12.1329 8.40681 13.2771C8.0177 12.5807 7.44979 12.0007 6.76169 11.5971C6.07358 11.1934 5.29023 10.9807 4.49246 10.9809V10.9809C3.30099 10.9809 2.15832 11.4542 1.31582 12.2967C0.473316 13.1392 0 14.2818 0 15.4733V49.5075C0 50.699 0.473316 51.8417 1.31582 52.6842C2.15832 53.5267 3.30099 54 4.49246 54C5.08336 54.0017 5.66877 53.8867 6.21513 53.6617C6.76149 53.4366 7.25805 53.1059 7.67633 52.6886C8.0946 52.2712 8.42637 51.7753 8.65259 51.2295C8.87881 50.6836 8.99504 50.0984 8.99462 49.5075V40.8456C9.17871 40.9328 9.35957 41.0167 9.54689 41.0942C11.4382 41.8879 13.4707 42.29 15.5218 42.2763C16.9165 42.281 18.3057 42.0997 19.6525 41.737C20.9403 41.3909 22.1778 40.8796 23.3343 40.2158C24.4696 39.5671 25.5124 38.7687 26.4348 37.842C27.3592 36.9191 28.1613 35.8815 28.8215 34.7544C29.8523 32.9621 30.5192 30.9839 30.7841 28.9334C31.049 26.8828 30.9067 24.8001 30.3653 22.8047C30.0067 21.5141 29.4846 20.2746 28.8118 19.1164ZM21.8874 29.7743C21.5857 30.6464 21.1259 31.4555 20.531 32.161C19.9437 32.8437 19.2183 33.3941 18.4026 33.7758C17.5194 34.1837 16.5559 34.3879 15.5831 34.3733C14.6605 34.391 13.7458 34.2004 12.907 33.8157C12.0683 33.431 11.3271 32.8621 10.7386 32.1513C10.1589 31.4434 9.71544 30.6341 9.43062 29.7646C8.81918 27.8993 8.81918 25.8875 9.43062 24.0222C9.71001 23.1679 10.1544 22.3768 10.7386 21.6937C11.3158 21.0349 12.0257 20.5055 12.8218 20.1402C13.6839 19.7469 14.6227 19.5505 15.5702 19.5653C16.5407 19.5497 17.5028 19.7459 18.3897 20.1402C19.1993 20.5046 19.9241 21.0337 20.5181 21.6937C21.1175 22.3741 21.5783 23.1651 21.8745 24.0222C22.5118 25.8833 22.5118 27.9035 21.8745 29.7646L21.8874 29.7743Z" fill="white"/>
<path d="M95.1517 0C93.9611 0 92.8192 0.472972 91.9773 1.31487C91.1354 2.15676 90.6624 3.29861 90.6624 4.48923V13.1447C90.4784 13.0608 90.2975 12.9768 90.1102 12.896C88.2181 12.1051 86.1859 11.7042 84.1353 11.7172C82.7407 11.7114 81.3515 11.8917 80.0046 12.2533C78.7168 12.5994 77.4792 13.1107 76.3227 13.7745C75.1889 14.4254 74.1464 15.2236 73.2223 16.1483C72.2978 17.0711 71.4957 18.1088 70.8355 19.2359C69.8048 21.0282 69.1378 23.0064 68.8729 25.0569C68.608 27.1075 68.7504 29.1902 69.2918 31.1856C69.6462 32.4782 70.165 33.7199 70.8355 34.8804C72.8481 38.3362 76.1431 40.8582 80.0046 41.8984C81.3515 42.2601 82.7407 42.4404 84.1353 42.4346C86.6092 42.4503 89.0492 41.8581 91.2406 40.7099C91.7279 41.572 92.4867 42.2487 93.3986 42.6347C94.3106 43.0207 95.3246 43.0943 96.2828 42.8441C97.241 42.5939 98.0895 42.0338 98.6963 41.2512C99.3031 40.4686 99.6341 39.5073 99.6377 38.517V4.48277C99.636 3.29383 99.1627 2.15413 98.3217 1.31372C97.4807 0.473316 96.3406 0.000854123 95.1517 0V0ZM90.2038 29.9551C89.9244 30.8095 89.48 31.6006 88.8958 32.2837C88.3197 32.9445 87.6096 33.4751 86.8127 33.8404C85.9499 34.2312 85.0113 34.4264 84.0642 34.4121C83.0942 34.4272 82.1323 34.2321 81.2447 33.8404C80.4343 33.4759 79.7093 32.9456 79.1164 32.2837C78.5169 31.6033 78.0561 30.8123 77.7599 29.9551C77.1226 28.0941 77.1226 26.0739 77.7599 24.2128C78.0609 23.3413 78.5208 22.5332 79.1164 21.8293C79.703 21.1459 80.4286 20.5954 81.2447 20.2145C82.1279 19.8066 83.0915 19.6024 84.0642 19.617C84.9871 19.5997 85.902 19.7907 86.7408 20.176C87.5795 20.5613 88.3206 21.1308 88.9087 21.8422C89.4842 22.5486 89.9233 23.3557 90.2038 24.2225C90.8153 26.0878 90.8153 28.0995 90.2038 29.9648V29.9551Z" fill="white"/>
</svg>
